      <svg
        xmlns="http://www.w3.org/2000/svg"
        width="1414"
        height="881"
        viewBox="0 0 1414 881"
        fill="none"
      >
        <path
          d="M668 606C643.333 606 614.667 596.667 582 578C550 559.333 512.333 531.333 469 494C439.667 468 411.333 440 384 410C356.667 380 331.333 350.333 308 321C294 322.333 279.333 321.333 264 318C221.333 382.667 188 435.333 164 476C140 516.667 128 547.333 128 568C128 571.333 128.333 574 129 576V583C129 592.333 124.667 597 116 597C102.667 597 96 588 96 570C96 522.667 135.333 433.667 214 303C173.333 288.333 153 267.667 153 241C153 226.333 159.667 213 173 201C187 189 203.333 183 222 183C242.667 183 260.333 191 275 207C284.333 193.667 296 177.333 310 158C324 138 340.333 115.667 359 91C366.333 83.6667 377 79.3333 391 78C405 76.6667 419.667 76 435 76C446.333 76 452 78.3333 452 83C452 85 450.667 87.3333 448 90C399.333 142.667 355 197 315 253L362 308C399.333 306 433.333 301.333 464 294C494.667 286 526.667 276.333 560 265C643.333 235.667 695.333 198.333 716 153C719.333 146.333 721.333 140.667 722 136C722.667 131.333 723 126.667 723 122C723 77.3333 685.667 49.6667 611 39C559 31 500.667 27 436 27C365.333 27 295.667 32 227 42C158.333 51.3333 90.3333 65.6667 23 85C19.6667 85.6667 16.6667 86.3333 14 87C12 87 10.3333 87 9 87C3 87 0 85 0 81C0 73 7 64 21 54C33 44.6667 45 38.6667 57 36C149 12 257 0 381 0C469.667 0 554.333 7.00001 635 21C730.333 38.3334 778 74.3334 778 129C778 145.667 772.333 163.667 761 183C734.333 225.667 685.667 259.667 615 285C586.333 295.667 558.333 304.333 531 311C504.333 317.667 473 322 437 324C427 324.667 416.667 325.333 406 326C396 326 385.667 325.667 375 325C393 347.667 413.667 371 437 395C460.333 419 488.667 445.667 522 475C562 509.667 593.667 534.667 617 550C641 566 662.333 574 681 574C702.333 574 713.333 565.667 714 549V544C714 532.667 712.333 523.667 709 517C709 515.667 708.667 515 708 515C708 514.333 708 513.667 708 513C708 508.333 710.333 506 715 506C729 506 736 519.333 736 546C736 553.333 735 560.667 733 568C731 575.333 726.667 581.667 720 587C706 599.667 688.667 606 668 606ZM222 290L252 242C243.333 229.333 233.333 223 222 223C203.333 223 194 232.667 194 252C194 267.333 203.333 280 222 290ZM298 307L284 287L271 303C274.333 303.667 278.333 304.333 283 305C288.333 305.667 293.333 306.333 298 307Z"
          fill="white"></path>
        <path
          d="M786.629 881C765.962 881 747.962 876.667 732.629 868C717.962 859.333 710.629 844.667 710.629 824C710.629 798.667 717.296 766.667 730.629 728C743.962 689.333 765.296 643.667 794.629 591C815.296 553.667 836.296 518.333 857.629 485C878.962 451.667 902.962 417.667 929.629 383L748.629 426C714.629 434 681.962 439.667 650.629 443C619.296 446.333 589.296 448 560.629 448C522.629 448 494.629 443 476.629 433C459.296 422.333 450.629 409.333 450.629 394C450.629 384.667 454.962 374.667 463.629 364C475.629 349.333 491.629 336.333 511.629 325C531.629 313.667 557.296 304 588.629 296C613.962 289.333 640.962 284.333 669.629 281C698.296 277.667 725.962 276 752.629 276C777.962 276 798.962 277 815.629 279C832.296 280.333 845.962 282.667 856.629 286C865.962 289.333 870.629 293.333 870.629 298C870.629 302.667 866.962 304.333 859.629 303C858.962 303 849.629 301.333 831.629 298C813.629 294.667 786.962 293.667 751.629 295C634.962 299.667 556.629 321 516.629 359C507.296 367.667 502.629 375 502.629 381C502.629 389.667 510.629 395.333 526.629 398C542.629 400.667 561.962 402 584.629 402C607.962 402 638.629 399 676.629 393C715.296 386.333 755.629 378.667 797.629 370C820.296 365.333 839.962 361.333 856.629 358C873.296 354.667 889.962 351.333 906.629 348C923.296 344.667 942.629 340.667 964.629 336C966.629 333.333 970.296 328.667 975.629 322C981.629 315.333 985.962 310.667 988.629 308C993.296 303.333 1003.3 299.667 1018.63 297C1033.96 294.333 1049.63 293 1065.63 293C1076.3 293 1081.63 294.667 1081.63 298C1081.63 299.333 1074.63 307.667 1060.63 323C1085.96 319.667 1108.96 317 1129.63 315C1150.3 313 1171.63 312 1193.63 312C1215.63 312 1239.3 314.333 1264.63 319C1289.96 323 1313.96 329.667 1336.63 339C1359.3 347.667 1377.63 359.333 1391.63 374C1406.3 388 1413.63 404.667 1413.63 424C1413.63 434.667 1409.63 440 1401.63 440C1396.96 440 1393.96 437 1392.63 431C1391.3 425.667 1389.63 420.667 1387.63 416C1385.63 411.333 1383.96 407.667 1382.63 405C1371.3 387.667 1354.63 375 1332.63 367C1310.63 359 1287.3 353.667 1262.63 351C1237.96 348.333 1215.63 347 1195.63 347C1168.96 347 1141.96 348.667 1114.63 352C1087.3 354.667 1056.3 359 1021.63 365C990.962 400.333 962.629 435.667 936.629 471C911.296 506.333 886.962 542.667 863.629 580C802.962 678.667 772.629 759.333 772.629 822C772.629 848 777.962 861 788.629 861C791.296 861 795.629 860 801.629 858C808.296 856 814.629 853.333 820.629 850C834.629 842 841.962 838 842.629 838C849.962 838 853.629 841 853.629 847C853.629 855 845.296 862.333 828.629 869C810.629 877 796.629 881 786.629 881Z"
          fill="white"></path>
      </svg>